<mxfile host="app.diagrams.net" modified="2024-07-06T09:54:52.135Z" agent="Mozilla/5.0 (Macintosh; Intel Mac OS X 10_15_7) AppleWebKit/537.36 (KHTML, like Gecko) Chrome/126.0.0.0 Safari/537.36" etag="cf_CpI8E37NFYMxQfCG0" version="24.6.4" type="github">
  <diagram name="Page-1" id="LEk2RzjLMQXYnz17zCRp">
    <mxGraphModel dx="977" dy="553" grid="1" gridSize="10" guides="1" tooltips="1" connect="1" arrows="1" fold="1" page="1" pageScale="1" pageWidth="850" pageHeight="1100" math="0" shadow="0">
      <root>
        <mxCell id="0" />
        <mxCell id="1" parent="0" />
        <mxCell id="zfE6cm3D6rAWmVV0Wjxj-2" value="MenuPanel" style="swimlane;fontStyle=1;align=center;verticalAlign=top;childLayout=stackLayout;horizontal=1;startSize=26;horizontalStack=0;resizeParent=1;resizeParentMax=0;resizeLast=0;collapsible=1;marginBottom=0;whiteSpace=wrap;html=1;" vertex="1" parent="1">
          <mxGeometry x="10" y="80" width="160" height="86" as="geometry" />
        </mxCell>
        <mxCell id="zfE6cm3D6rAWmVV0Wjxj-3" value="- app: TetrisApp" style="text;strokeColor=none;fillColor=none;align=left;verticalAlign=top;spacingLeft=4;spacingRight=4;overflow=hidden;rotatable=0;points=[[0,0.5],[1,0.5]];portConstraint=eastwest;whiteSpace=wrap;html=1;" vertex="1" parent="zfE6cm3D6rAWmVV0Wjxj-2">
          <mxGeometry y="26" width="160" height="26" as="geometry" />
        </mxCell>
        <mxCell id="zfE6cm3D6rAWmVV0Wjxj-4" value="" style="line;strokeWidth=1;fillColor=none;align=left;verticalAlign=middle;spacingTop=-1;spacingLeft=3;spacingRight=3;rotatable=0;labelPosition=right;points=[];portConstraint=eastwest;strokeColor=inherit;" vertex="1" parent="zfE6cm3D6rAWmVV0Wjxj-2">
          <mxGeometry y="52" width="160" height="8" as="geometry" />
        </mxCell>
        <mxCell id="zfE6cm3D6rAWmVV0Wjxj-5" value="+ MenuPanel(string): void" style="text;strokeColor=none;fillColor=none;align=left;verticalAlign=top;spacingLeft=4;spacingRight=4;overflow=hidden;rotatable=0;points=[[0,0.5],[1,0.5]];portConstraint=eastwest;whiteSpace=wrap;html=1;" vertex="1" parent="zfE6cm3D6rAWmVV0Wjxj-2">
          <mxGeometry y="60" width="160" height="26" as="geometry" />
        </mxCell>
        <mxCell id="zfE6cm3D6rAWmVV0Wjxj-15" value="ScoresPanel" style="swimlane;fontStyle=1;align=center;verticalAlign=top;childLayout=stackLayout;horizontal=1;startSize=26;horizontalStack=0;resizeParent=1;resizeParentMax=0;resizeLast=0;collapsible=1;marginBottom=0;whiteSpace=wrap;html=1;" vertex="1" parent="1">
          <mxGeometry x="440" y="80" width="160" height="86" as="geometry" />
        </mxCell>
        <mxCell id="zfE6cm3D6rAWmVV0Wjxj-16" value="- app: TetrisApp" style="text;strokeColor=none;fillColor=none;align=left;verticalAlign=top;spacingLeft=4;spacingRight=4;overflow=hidden;rotatable=0;points=[[0,0.5],[1,0.5]];portConstraint=eastwest;whiteSpace=wrap;html=1;" vertex="1" parent="zfE6cm3D6rAWmVV0Wjxj-15">
          <mxGeometry y="26" width="160" height="26" as="geometry" />
        </mxCell>
        <mxCell id="zfE6cm3D6rAWmVV0Wjxj-17" value="" style="line;strokeWidth=1;fillColor=none;align=left;verticalAlign=middle;spacingTop=-1;spacingLeft=3;spacingRight=3;rotatable=0;labelPosition=right;points=[];portConstraint=eastwest;strokeColor=inherit;" vertex="1" parent="zfE6cm3D6rAWmVV0Wjxj-15">
          <mxGeometry y="52" width="160" height="8" as="geometry" />
        </mxCell>
        <mxCell id="zfE6cm3D6rAWmVV0Wjxj-18" value="+ ScoresPanel(string): void" style="text;strokeColor=none;fillColor=none;align=left;verticalAlign=top;spacingLeft=4;spacingRight=4;overflow=hidden;rotatable=0;points=[[0,0.5],[1,0.5]];portConstraint=eastwest;whiteSpace=wrap;html=1;" vertex="1" parent="zfE6cm3D6rAWmVV0Wjxj-15">
          <mxGeometry y="60" width="160" height="26" as="geometry" />
        </mxCell>
        <mxCell id="zfE6cm3D6rAWmVV0Wjxj-19" value="GamePanel" style="swimlane;fontStyle=1;align=center;verticalAlign=top;childLayout=stackLayout;horizontal=1;startSize=26;horizontalStack=0;resizeParent=1;resizeParentMax=0;resizeLast=0;collapsible=1;marginBottom=0;whiteSpace=wrap;html=1;" vertex="1" parent="1">
          <mxGeometry x="230" y="80" width="160" height="90" as="geometry" />
        </mxCell>
        <mxCell id="zfE6cm3D6rAWmVV0Wjxj-20" value="- app: TetrisApp&amp;nbsp;&lt;div&gt;+ game: Game&lt;/div&gt;" style="text;strokeColor=none;fillColor=none;align=left;verticalAlign=top;spacingLeft=4;spacingRight=4;overflow=hidden;rotatable=0;points=[[0,0.5],[1,0.5]];portConstraint=eastwest;whiteSpace=wrap;html=1;" vertex="1" parent="zfE6cm3D6rAWmVV0Wjxj-19">
          <mxGeometry y="26" width="160" height="34" as="geometry" />
        </mxCell>
        <mxCell id="zfE6cm3D6rAWmVV0Wjxj-21" value="" style="line;strokeWidth=1;fillColor=none;align=left;verticalAlign=middle;spacingTop=-1;spacingLeft=3;spacingRight=3;rotatable=0;labelPosition=right;points=[];portConstraint=eastwest;strokeColor=inherit;" vertex="1" parent="zfE6cm3D6rAWmVV0Wjxj-19">
          <mxGeometry y="60" width="160" height="8" as="geometry" />
        </mxCell>
        <mxCell id="zfE6cm3D6rAWmVV0Wjxj-22" value="+ GamePanel(string): void" style="text;strokeColor=none;fillColor=none;align=left;verticalAlign=top;spacingLeft=4;spacingRight=4;overflow=hidden;rotatable=0;points=[[0,0.5],[1,0.5]];portConstraint=eastwest;whiteSpace=wrap;html=1;" vertex="1" parent="zfE6cm3D6rAWmVV0Wjxj-19">
          <mxGeometry y="68" width="160" height="22" as="geometry" />
        </mxCell>
        <mxCell id="zfE6cm3D6rAWmVV0Wjxj-23" value="drawable" style="swimlane;fontStyle=1;align=center;verticalAlign=top;childLayout=stackLayout;horizontal=1;startSize=26;horizontalStack=0;resizeParent=1;resizeParentMax=0;resizeLast=0;collapsible=1;marginBottom=0;whiteSpace=wrap;html=1;" vertex="1" parent="1">
          <mxGeometry x="30" y="230" width="160" height="60" as="geometry" />
        </mxCell>
        <mxCell id="zfE6cm3D6rAWmVV0Wjxj-25" value="" style="line;strokeWidth=1;fillColor=none;align=left;verticalAlign=middle;spacingTop=-1;spacingLeft=3;spacingRight=3;rotatable=0;labelPosition=right;points=[];portConstraint=eastwest;strokeColor=inherit;" vertex="1" parent="zfE6cm3D6rAWmVV0Wjxj-23">
          <mxGeometry y="26" width="160" height="8" as="geometry" />
        </mxCell>
        <mxCell id="zfE6cm3D6rAWmVV0Wjxj-26" value="+draw(Graphics)" style="text;strokeColor=none;fillColor=none;align=left;verticalAlign=top;spacingLeft=4;spacingRight=4;overflow=hidden;rotatable=0;points=[[0,0.5],[1,0.5]];portConstraint=eastwest;whiteSpace=wrap;html=1;" vertex="1" parent="zfE6cm3D6rAWmVV0Wjxj-23">
          <mxGeometry y="34" width="160" height="26" as="geometry" />
        </mxCell>
        <mxCell id="zfE6cm3D6rAWmVV0Wjxj-32" value="Tetromino" style="swimlane;fontStyle=1;align=center;verticalAlign=top;childLayout=stackLayout;horizontal=1;startSize=26;horizontalStack=0;resizeParent=1;resizeParentMax=0;resizeLast=0;collapsible=1;marginBottom=0;whiteSpace=wrap;html=1;" vertex="1" parent="1">
          <mxGeometry x="90" y="356" width="190" height="220" as="geometry">
            <mxRectangle x="30" y="310" width="80" height="30" as="alternateBounds" />
          </mxGeometry>
        </mxCell>
        <mxCell id="zfE6cm3D6rAWmVV0Wjxj-33" value="- origin_position: java.awt.Point&lt;div&gt;- color: java.awt.Color&lt;/div&gt;&lt;div&gt;- dimensions[]: java.awt.Paint&lt;/div&gt;&lt;div&gt;- rotation: int&lt;br&gt;&lt;div&gt;&lt;br&gt;&lt;/div&gt;&lt;/div&gt;" style="text;strokeColor=none;fillColor=none;align=left;verticalAlign=top;spacingLeft=4;spacingRight=4;overflow=hidden;rotatable=0;points=[[0,0.5],[1,0.5]];portConstraint=eastwest;whiteSpace=wrap;html=1;" vertex="1" parent="zfE6cm3D6rAWmVV0Wjxj-32">
          <mxGeometry y="26" width="190" height="64" as="geometry" />
        </mxCell>
        <mxCell id="zfE6cm3D6rAWmVV0Wjxj-34" value="" style="line;strokeWidth=1;fillColor=none;align=left;verticalAlign=middle;spacingTop=-1;spacingLeft=3;spacingRight=3;rotatable=0;labelPosition=right;points=[];portConstraint=eastwest;strokeColor=inherit;" vertex="1" parent="zfE6cm3D6rAWmVV0Wjxj-32">
          <mxGeometry y="90" width="190" height="8" as="geometry" />
        </mxCell>
        <mxCell id="zfE6cm3D6rAWmVV0Wjxj-35" value="+ Tetromino(Color color)&lt;div&gt;+ setters(type): void&lt;div&gt;+ getters(): type&lt;/div&gt;&lt;div&gt;+ is_collide(int x, int y): bool&lt;/div&gt;&lt;div&gt;+ rotate(): void&lt;/div&gt;&lt;div&gt;/ draw(): void&lt;/div&gt;&lt;div&gt;/ move(): void&lt;/div&gt;&lt;div&gt;&lt;br&gt;&lt;/div&gt;&lt;/div&gt;" style="text;strokeColor=none;fillColor=none;align=left;verticalAlign=top;spacingLeft=4;spacingRight=4;overflow=hidden;rotatable=0;points=[[0,0.5],[1,0.5]];portConstraint=eastwest;whiteSpace=wrap;html=1;" vertex="1" parent="zfE6cm3D6rAWmVV0Wjxj-32">
          <mxGeometry y="98" width="190" height="122" as="geometry" />
        </mxCell>
        <mxCell id="zfE6cm3D6rAWmVV0Wjxj-45" value="Board" style="swimlane;fontStyle=1;align=center;verticalAlign=top;childLayout=stackLayout;horizontal=1;startSize=26;horizontalStack=0;resizeParent=1;resizeParentMax=0;resizeLast=0;collapsible=1;marginBottom=0;whiteSpace=wrap;html=1;" vertex="1" parent="1">
          <mxGeometry x="642.5" y="80" width="200" height="316" as="geometry">
            <mxRectangle x="30" y="310" width="80" height="30" as="alternateBounds" />
          </mxGeometry>
        </mxCell>
        <mxCell id="zfE6cm3D6rAWmVV0Wjxj-46" value="# WIDTH: static int&lt;div&gt;# HEIGHT: static int&lt;/div&gt;&lt;div&gt;# BLOCK_SIZE: static int&lt;/div&gt;&lt;div&gt;- key_listener: KeyListener&lt;div&gt;# grid [][]: java.awt.Color&lt;/div&gt;&lt;div&gt;# origin_position: Point&lt;/div&gt;&lt;div&gt;# current_piece: Tetromino&lt;/div&gt;&lt;div&gt;- ArrayList&amp;lt;Tetromino&amp;gt; next_peices&lt;br&gt;&lt;div&gt;&lt;div&gt;&lt;br&gt;&lt;/div&gt;&lt;/div&gt;&lt;/div&gt;&lt;/div&gt;" style="text;strokeColor=none;fillColor=none;align=left;verticalAlign=top;spacingLeft=4;spacingRight=4;overflow=hidden;rotatable=0;points=[[0,0.5],[1,0.5]];portConstraint=eastwest;whiteSpace=wrap;html=1;" vertex="1" parent="zfE6cm3D6rAWmVV0Wjxj-45">
          <mxGeometry y="26" width="200" height="124" as="geometry" />
        </mxCell>
        <mxCell id="zfE6cm3D6rAWmVV0Wjxj-47" value="" style="line;strokeWidth=1;fillColor=none;align=left;verticalAlign=middle;spacingTop=-1;spacingLeft=3;spacingRight=3;rotatable=0;labelPosition=right;points=[];portConstraint=eastwest;strokeColor=inherit;" vertex="1" parent="zfE6cm3D6rAWmVV0Wjxj-45">
          <mxGeometry y="150" width="200" height="8" as="geometry" />
        </mxCell>
        <mxCell id="zfE6cm3D6rAWmVV0Wjxj-48" value="+ setters(type): void&lt;div&gt;+ getters(): type&lt;/div&gt;&lt;div&gt;+ init(): void&lt;/div&gt;&lt;div&gt;&lt;span style=&quot;background-color: initial;&quot;&gt;+ add_to_board(Tetromino): void&lt;/span&gt;&lt;br&gt;&lt;/div&gt;&lt;div&gt;# clear_rows(): void&lt;/div&gt;&lt;div&gt;# delete_row(): void&lt;/div&gt;&lt;div&gt;+ draw_piece(Tetromino shape): void&lt;/div&gt;&lt;div&gt;/ paintComponents(): void&lt;/div&gt;&lt;div&gt;- get_random_piece(): Tetromino&lt;/div&gt;" style="text;strokeColor=none;fillColor=none;align=left;verticalAlign=top;spacingLeft=4;spacingRight=4;overflow=hidden;rotatable=0;points=[[0,0.5],[1,0.5]];portConstraint=eastwest;whiteSpace=wrap;html=1;" vertex="1" parent="zfE6cm3D6rAWmVV0Wjxj-45">
          <mxGeometry y="158" width="200" height="158" as="geometry" />
        </mxCell>
        <mxCell id="zfE6cm3D6rAWmVV0Wjxj-49" value="Thread" style="swimlane;fontStyle=0;childLayout=stackLayout;horizontal=1;startSize=26;fillColor=none;horizontalStack=0;resizeParent=1;resizeParentMax=0;resizeLast=0;collapsible=1;marginBottom=0;whiteSpace=wrap;html=1;" vertex="1" parent="1">
          <mxGeometry x="665" y="570" width="140" height="52" as="geometry" />
        </mxCell>
        <mxCell id="zfE6cm3D6rAWmVV0Wjxj-54" value="Extends" style="endArrow=block;endSize=16;endFill=0;html=1;rounded=0;" edge="1" parent="1" source="zfE6cm3D6rAWmVV0Wjxj-57" target="zfE6cm3D6rAWmVV0Wjxj-49">
          <mxGeometry x="-0.0058" width="160" relative="1" as="geometry">
            <mxPoint x="735" y="736" as="sourcePoint" />
            <mxPoint x="575" y="596" as="targetPoint" />
            <mxPoint as="offset" />
          </mxGeometry>
        </mxCell>
        <mxCell id="zfE6cm3D6rAWmVV0Wjxj-57" value="MoveShapeDownThread" style="swimlane;fontStyle=1;align=center;verticalAlign=top;childLayout=stackLayout;horizontal=1;startSize=26;horizontalStack=0;resizeParent=1;resizeParentMax=0;resizeLast=0;collapsible=1;marginBottom=0;whiteSpace=wrap;html=1;" vertex="1" parent="1">
          <mxGeometry x="640" y="686" width="190" height="108" as="geometry">
            <mxRectangle x="30" y="310" width="80" height="30" as="alternateBounds" />
          </mxGeometry>
        </mxCell>
        <mxCell id="zfE6cm3D6rAWmVV0Wjxj-58" value="- waiting_time&lt;div&gt;- game&lt;br&gt;&lt;div&gt;&lt;div&gt;&lt;br&gt;&lt;/div&gt;&lt;/div&gt;&lt;/div&gt;" style="text;strokeColor=none;fillColor=none;align=left;verticalAlign=top;spacingLeft=4;spacingRight=4;overflow=hidden;rotatable=0;points=[[0,0.5],[1,0.5]];portConstraint=eastwest;whiteSpace=wrap;html=1;" vertex="1" parent="zfE6cm3D6rAWmVV0Wjxj-57">
          <mxGeometry y="26" width="190" height="44" as="geometry" />
        </mxCell>
        <mxCell id="zfE6cm3D6rAWmVV0Wjxj-59" value="" style="line;strokeWidth=1;fillColor=none;align=left;verticalAlign=middle;spacingTop=-1;spacingLeft=3;spacingRight=3;rotatable=0;labelPosition=right;points=[];portConstraint=eastwest;strokeColor=inherit;" vertex="1" parent="zfE6cm3D6rAWmVV0Wjxj-57">
          <mxGeometry y="70" width="190" height="8" as="geometry" />
        </mxCell>
        <mxCell id="zfE6cm3D6rAWmVV0Wjxj-60" value="/ run()&lt;br&gt;&lt;div&gt;&lt;br&gt;&lt;/div&gt;" style="text;strokeColor=none;fillColor=none;align=left;verticalAlign=top;spacingLeft=4;spacingRight=4;overflow=hidden;rotatable=0;points=[[0,0.5],[1,0.5]];portConstraint=eastwest;whiteSpace=wrap;html=1;" vertex="1" parent="zfE6cm3D6rAWmVV0Wjxj-57">
          <mxGeometry y="78" width="190" height="30" as="geometry" />
        </mxCell>
        <mxCell id="zfE6cm3D6rAWmVV0Wjxj-62" value="TetrisApp" style="swimlane;fontStyle=1;align=center;verticalAlign=top;childLayout=stackLayout;horizontal=1;startSize=26;horizontalStack=0;resizeParent=1;resizeParentMax=0;resizeLast=0;collapsible=1;marginBottom=0;whiteSpace=wrap;html=1;" vertex="1" parent="1">
          <mxGeometry x="440" y="200" width="165" height="170" as="geometry" />
        </mxCell>
        <mxCell id="zfE6cm3D6rAWmVV0Wjxj-63" value="- frame: JFrame&lt;div&gt;- game_panel: GamePanel&lt;/div&gt;&lt;div&gt;- menu_panel: MenuPanel&lt;/div&gt;&lt;div&gt;- ScoresPanel: ScoresPanel&lt;/div&gt;" style="text;strokeColor=none;fillColor=none;align=left;verticalAlign=top;spacingLeft=4;spacingRight=4;overflow=hidden;rotatable=0;points=[[0,0.5],[1,0.5]];portConstraint=eastwest;whiteSpace=wrap;html=1;" vertex="1" parent="zfE6cm3D6rAWmVV0Wjxj-62">
          <mxGeometry y="26" width="165" height="64" as="geometry" />
        </mxCell>
        <mxCell id="zfE6cm3D6rAWmVV0Wjxj-64" value="" style="line;strokeWidth=1;fillColor=none;align=left;verticalAlign=middle;spacingTop=-1;spacingLeft=3;spacingRight=3;rotatable=0;labelPosition=right;points=[];portConstraint=eastwest;strokeColor=inherit;" vertex="1" parent="zfE6cm3D6rAWmVV0Wjxj-62">
          <mxGeometry y="90" width="165" height="8" as="geometry" />
        </mxCell>
        <mxCell id="zfE6cm3D6rAWmVV0Wjxj-65" value="+ TetrisApp()&lt;div&gt;+ show_menu()&lt;/div&gt;&lt;div&gt;+ start_game()&lt;/div&gt;&lt;div&gt;+ show_scores()&lt;/div&gt;" style="text;strokeColor=none;fillColor=none;align=left;verticalAlign=top;spacingLeft=4;spacingRight=4;overflow=hidden;rotatable=0;points=[[0,0.5],[1,0.5]];portConstraint=eastwest;whiteSpace=wrap;html=1;" vertex="1" parent="zfE6cm3D6rAWmVV0Wjxj-62">
          <mxGeometry y="98" width="165" height="72" as="geometry" />
        </mxCell>
        <mxCell id="zfE6cm3D6rAWmVV0Wjxj-66" value="movable" style="swimlane;fontStyle=1;align=center;verticalAlign=top;childLayout=stackLayout;horizontal=1;startSize=26;horizontalStack=0;resizeParent=1;resizeParentMax=0;resizeLast=0;collapsible=1;marginBottom=0;whiteSpace=wrap;html=1;" vertex="1" parent="1">
          <mxGeometry x="205" y="230" width="160" height="60" as="geometry" />
        </mxCell>
        <mxCell id="zfE6cm3D6rAWmVV0Wjxj-67" value="" style="line;strokeWidth=1;fillColor=none;align=left;verticalAlign=middle;spacingTop=-1;spacingLeft=3;spacingRight=3;rotatable=0;labelPosition=right;points=[];portConstraint=eastwest;strokeColor=inherit;" vertex="1" parent="zfE6cm3D6rAWmVV0Wjxj-66">
          <mxGeometry y="26" width="160" height="8" as="geometry" />
        </mxCell>
        <mxCell id="zfE6cm3D6rAWmVV0Wjxj-68" value="+ move(Direction)" style="text;strokeColor=none;fillColor=none;align=left;verticalAlign=top;spacingLeft=4;spacingRight=4;overflow=hidden;rotatable=0;points=[[0,0.5],[1,0.5]];portConstraint=eastwest;whiteSpace=wrap;html=1;" vertex="1" parent="zfE6cm3D6rAWmVV0Wjxj-66">
          <mxGeometry y="34" width="160" height="26" as="geometry" />
        </mxCell>
        <mxCell id="zfE6cm3D6rAWmVV0Wjxj-70" value="" style="endArrow=block;dashed=1;endFill=0;endSize=12;html=1;rounded=0;exitX=0.5;exitY=0;exitDx=0;exitDy=0;" edge="1" parent="1" source="zfE6cm3D6rAWmVV0Wjxj-32" target="zfE6cm3D6rAWmVV0Wjxj-23">
          <mxGeometry width="160" relative="1" as="geometry">
            <mxPoint x="310" y="340" as="sourcePoint" />
            <mxPoint x="470" y="340" as="targetPoint" />
          </mxGeometry>
        </mxCell>
        <mxCell id="zfE6cm3D6rAWmVV0Wjxj-71" value="" style="endArrow=block;dashed=1;endFill=0;endSize=12;html=1;rounded=0;exitX=0.5;exitY=0;exitDx=0;exitDy=0;" edge="1" parent="1" source="zfE6cm3D6rAWmVV0Wjxj-32" target="zfE6cm3D6rAWmVV0Wjxj-66">
          <mxGeometry width="160" relative="1" as="geometry">
            <mxPoint x="120" y="370" as="sourcePoint" />
            <mxPoint x="120" y="300" as="targetPoint" />
          </mxGeometry>
        </mxCell>
        <mxCell id="zfE6cm3D6rAWmVV0Wjxj-72" value="IShape" style="swimlane;fontStyle=1;align=center;verticalAlign=top;childLayout=stackLayout;horizontal=1;startSize=26;horizontalStack=0;resizeParent=1;resizeParentMax=0;resizeLast=0;collapsible=1;marginBottom=0;whiteSpace=wrap;html=1;" vertex="1" parent="1">
          <mxGeometry x="10" y="620" width="190" height="220" as="geometry">
            <mxRectangle x="30" y="310" width="80" height="30" as="alternateBounds" />
          </mxGeometry>
        </mxCell>
        <mxCell id="zfE6cm3D6rAWmVV0Wjxj-73" value="- origin_position: java.awt.Point&lt;div&gt;# color: java.awt.Color&lt;/div&gt;&lt;div&gt;# dimensions[]: java.awt.Paint&lt;/div&gt;&lt;div&gt;- rotation: int&lt;br&gt;&lt;div&gt;&lt;br&gt;&lt;/div&gt;&lt;/div&gt;" style="text;strokeColor=none;fillColor=none;align=left;verticalAlign=top;spacingLeft=4;spacingRight=4;overflow=hidden;rotatable=0;points=[[0,0.5],[1,0.5]];portConstraint=eastwest;whiteSpace=wrap;html=1;" vertex="1" parent="zfE6cm3D6rAWmVV0Wjxj-72">
          <mxGeometry y="26" width="190" height="64" as="geometry" />
        </mxCell>
        <mxCell id="zfE6cm3D6rAWmVV0Wjxj-74" value="" style="line;strokeWidth=1;fillColor=none;align=left;verticalAlign=middle;spacingTop=-1;spacingLeft=3;spacingRight=3;rotatable=0;labelPosition=right;points=[];portConstraint=eastwest;strokeColor=inherit;" vertex="1" parent="zfE6cm3D6rAWmVV0Wjxj-72">
          <mxGeometry y="90" width="190" height="8" as="geometry" />
        </mxCell>
        <mxCell id="zfE6cm3D6rAWmVV0Wjxj-75" value="/ IShape(Color color)&lt;div&gt;/ setters(type): void&lt;div&gt;/ getters(): type&lt;/div&gt;&lt;div&gt;/ is_collide(int x, int y): bool&lt;/div&gt;&lt;div&gt;/ rotate(): void&lt;/div&gt;&lt;div&gt;/ draw(): void&lt;/div&gt;&lt;div&gt;/ move(): void&lt;/div&gt;&lt;div&gt;&lt;br&gt;&lt;/div&gt;&lt;/div&gt;" style="text;strokeColor=none;fillColor=none;align=left;verticalAlign=top;spacingLeft=4;spacingRight=4;overflow=hidden;rotatable=0;points=[[0,0.5],[1,0.5]];portConstraint=eastwest;whiteSpace=wrap;html=1;" vertex="1" parent="zfE6cm3D6rAWmVV0Wjxj-72">
          <mxGeometry y="98" width="190" height="122" as="geometry" />
        </mxCell>
        <mxCell id="zfE6cm3D6rAWmVV0Wjxj-76" value="TShape" style="swimlane;fontStyle=1;align=center;verticalAlign=top;childLayout=stackLayout;horizontal=1;startSize=26;horizontalStack=0;resizeParent=1;resizeParentMax=0;resizeLast=0;collapsible=1;marginBottom=0;whiteSpace=wrap;html=1;" vertex="1" parent="1">
          <mxGeometry x="210" y="620" width="190" height="220" as="geometry">
            <mxRectangle x="30" y="310" width="80" height="30" as="alternateBounds" />
          </mxGeometry>
        </mxCell>
        <mxCell id="zfE6cm3D6rAWmVV0Wjxj-77" value="- origin_position: java.awt.Point&lt;div&gt;# color: java.awt.Color&lt;/div&gt;&lt;div&gt;# dimensions[]: java.awt.Paint&lt;/div&gt;&lt;div&gt;- rotation: int&lt;br&gt;&lt;div&gt;&lt;br&gt;&lt;/div&gt;&lt;/div&gt;" style="text;strokeColor=none;fillColor=none;align=left;verticalAlign=top;spacingLeft=4;spacingRight=4;overflow=hidden;rotatable=0;points=[[0,0.5],[1,0.5]];portConstraint=eastwest;whiteSpace=wrap;html=1;" vertex="1" parent="zfE6cm3D6rAWmVV0Wjxj-76">
          <mxGeometry y="26" width="190" height="64" as="geometry" />
        </mxCell>
        <mxCell id="zfE6cm3D6rAWmVV0Wjxj-78" value="" style="line;strokeWidth=1;fillColor=none;align=left;verticalAlign=middle;spacingTop=-1;spacingLeft=3;spacingRight=3;rotatable=0;labelPosition=right;points=[];portConstraint=eastwest;strokeColor=inherit;" vertex="1" parent="zfE6cm3D6rAWmVV0Wjxj-76">
          <mxGeometry y="90" width="190" height="8" as="geometry" />
        </mxCell>
        <mxCell id="zfE6cm3D6rAWmVV0Wjxj-79" value="/ TShape(Color color)&lt;div&gt;/ setters(type): void&lt;div&gt;/ getters(): type&lt;/div&gt;&lt;div&gt;/ is_collide(int x, int y): bool&lt;/div&gt;&lt;div&gt;/ rotate(): void&lt;/div&gt;&lt;div&gt;/ draw(): void&lt;/div&gt;&lt;div&gt;/ move(): void&lt;/div&gt;&lt;div&gt;&lt;br&gt;&lt;/div&gt;&lt;/div&gt;" style="text;strokeColor=none;fillColor=none;align=left;verticalAlign=top;spacingLeft=4;spacingRight=4;overflow=hidden;rotatable=0;points=[[0,0.5],[1,0.5]];portConstraint=eastwest;whiteSpace=wrap;html=1;" vertex="1" parent="zfE6cm3D6rAWmVV0Wjxj-76">
          <mxGeometry y="98" width="190" height="122" as="geometry" />
        </mxCell>
        <mxCell id="zfE6cm3D6rAWmVV0Wjxj-80" value="Extends" style="endArrow=block;endSize=16;endFill=0;html=1;rounded=0;exitX=0.5;exitY=0;exitDx=0;exitDy=0;entryX=0.482;entryY=1.007;entryDx=0;entryDy=0;entryPerimeter=0;" edge="1" parent="1" source="zfE6cm3D6rAWmVV0Wjxj-72" target="zfE6cm3D6rAWmVV0Wjxj-35">
          <mxGeometry width="160" relative="1" as="geometry">
            <mxPoint x="310" y="610" as="sourcePoint" />
            <mxPoint x="470" y="610" as="targetPoint" />
          </mxGeometry>
        </mxCell>
        <mxCell id="zfE6cm3D6rAWmVV0Wjxj-81" value="Extends" style="endArrow=block;endSize=16;endFill=0;html=1;rounded=0;exitX=0.5;exitY=0;exitDx=0;exitDy=0;entryX=0.478;entryY=1.007;entryDx=0;entryDy=0;entryPerimeter=0;" edge="1" parent="1" source="zfE6cm3D6rAWmVV0Wjxj-76" target="zfE6cm3D6rAWmVV0Wjxj-35">
          <mxGeometry width="160" relative="1" as="geometry">
            <mxPoint x="115" y="610" as="sourcePoint" />
            <mxPoint x="192" y="587" as="targetPoint" />
          </mxGeometry>
        </mxCell>
        <mxCell id="zfE6cm3D6rAWmVV0Wjxj-82" value="JPanel" style="swimlane;fontStyle=1;align=center;verticalAlign=top;childLayout=stackLayout;horizontal=1;startSize=26;horizontalStack=0;resizeParent=1;resizeParentMax=0;resizeLast=0;collapsible=1;marginBottom=0;whiteSpace=wrap;html=1;" vertex="1" parent="1">
          <mxGeometry x="330" width="160" height="34" as="geometry" />
        </mxCell>
        <mxCell id="zfE6cm3D6rAWmVV0Wjxj-83" value="" style="line;strokeWidth=1;fillColor=none;align=left;verticalAlign=middle;spacingTop=-1;spacingLeft=3;spacingRight=3;rotatable=0;labelPosition=right;points=[];portConstraint=eastwest;strokeColor=inherit;" vertex="1" parent="zfE6cm3D6rAWmVV0Wjxj-82">
          <mxGeometry y="26" width="160" height="8" as="geometry" />
        </mxCell>
        <mxCell id="zfE6cm3D6rAWmVV0Wjxj-85" value="Extends" style="endArrow=block;endSize=16;endFill=0;html=1;rounded=0;exitX=0.5;exitY=0;exitDx=0;exitDy=0;" edge="1" parent="1" source="zfE6cm3D6rAWmVV0Wjxj-45" target="zfE6cm3D6rAWmVV0Wjxj-82">
          <mxGeometry width="160" relative="1" as="geometry">
            <mxPoint x="545" y="170" as="sourcePoint" />
            <mxPoint x="595" y="110" as="targetPoint" />
          </mxGeometry>
        </mxCell>
        <mxCell id="zfE6cm3D6rAWmVV0Wjxj-90" value="Extends" style="endArrow=block;endSize=16;endFill=0;html=1;rounded=0;exitX=0.5;exitY=0;exitDx=0;exitDy=0;" edge="1" parent="1" source="zfE6cm3D6rAWmVV0Wjxj-2" target="zfE6cm3D6rAWmVV0Wjxj-82">
          <mxGeometry width="160" relative="1" as="geometry">
            <mxPoint x="735" y="90" as="sourcePoint" />
            <mxPoint x="500" y="43" as="targetPoint" />
          </mxGeometry>
        </mxCell>
        <mxCell id="zfE6cm3D6rAWmVV0Wjxj-91" value="Extends" style="endArrow=block;endSize=16;endFill=0;html=1;rounded=0;exitX=0.5;exitY=0;exitDx=0;exitDy=0;" edge="1" parent="1" source="zfE6cm3D6rAWmVV0Wjxj-19" target="zfE6cm3D6rAWmVV0Wjxj-82">
          <mxGeometry width="160" relative="1" as="geometry">
            <mxPoint x="130" y="90" as="sourcePoint" />
            <mxPoint x="342" y="44" as="targetPoint" />
          </mxGeometry>
        </mxCell>
        <mxCell id="zfE6cm3D6rAWmVV0Wjxj-92" value="Extends" style="endArrow=block;endSize=16;endFill=0;html=1;rounded=0;exitX=0.5;exitY=0;exitDx=0;exitDy=0;" edge="1" parent="1" source="zfE6cm3D6rAWmVV0Wjxj-15" target="zfE6cm3D6rAWmVV0Wjxj-82">
          <mxGeometry width="160" relative="1" as="geometry">
            <mxPoint x="330" y="90" as="sourcePoint" />
            <mxPoint x="396" y="44" as="targetPoint" />
          </mxGeometry>
        </mxCell>
        <mxCell id="zfE6cm3D6rAWmVV0Wjxj-93" value="Game" style="swimlane;fontStyle=1;align=center;verticalAlign=top;childLayout=stackLayout;horizontal=1;startSize=26;horizontalStack=0;resizeParent=1;resizeParentMax=0;resizeLast=0;collapsible=1;marginBottom=0;whiteSpace=wrap;html=1;" vertex="1" parent="1">
          <mxGeometry x="442.5" y="410" width="160" height="144" as="geometry" />
        </mxCell>
        <mxCell id="zfE6cm3D6rAWmVV0Wjxj-94" value="- player_name: String&lt;div&gt;- score: long&lt;/div&gt;&lt;div&gt;- board: Board&lt;/div&gt;&lt;div&gt;- db_handler: DbHandler&lt;br&gt;&lt;div&gt;- current_window: Window&lt;/div&gt;&lt;/div&gt;" style="text;strokeColor=none;fillColor=none;align=left;verticalAlign=top;spacingLeft=4;spacingRight=4;overflow=hidden;rotatable=0;points=[[0,0.5],[1,0.5]];portConstraint=eastwest;whiteSpace=wrap;html=1;" vertex="1" parent="zfE6cm3D6rAWmVV0Wjxj-93">
          <mxGeometry y="26" width="160" height="84" as="geometry" />
        </mxCell>
        <mxCell id="zfE6cm3D6rAWmVV0Wjxj-95" value="" style="line;strokeWidth=1;fillColor=none;align=left;verticalAlign=middle;spacingTop=-1;spacingLeft=3;spacingRight=3;rotatable=0;labelPosition=right;points=[];portConstraint=eastwest;strokeColor=inherit;" vertex="1" parent="zfE6cm3D6rAWmVV0Wjxj-93">
          <mxGeometry y="110" width="160" height="8" as="geometry" />
        </mxCell>
        <mxCell id="zfE6cm3D6rAWmVV0Wjxj-96" value="+ start()" style="text;strokeColor=none;fillColor=none;align=left;verticalAlign=top;spacingLeft=4;spacingRight=4;overflow=hidden;rotatable=0;points=[[0,0.5],[1,0.5]];portConstraint=eastwest;whiteSpace=wrap;html=1;" vertex="1" parent="zfE6cm3D6rAWmVV0Wjxj-93">
          <mxGeometry y="118" width="160" height="26" as="geometry" />
        </mxCell>
        <mxCell id="zfE6cm3D6rAWmVV0Wjxj-102" value="1" style="endArrow=open;html=1;endSize=12;startArrow=diamondThin;startSize=14;startFill=0;edgeStyle=orthogonalEdgeStyle;align=left;verticalAlign=bottom;rounded=0;exitX=0.004;exitY=0.104;exitDx=0;exitDy=0;exitPerimeter=0;entryX=1;entryY=0.5;entryDx=0;entryDy=0;" edge="1" parent="1" source="zfE6cm3D6rAWmVV0Wjxj-62" target="zfE6cm3D6rAWmVV0Wjxj-5">
          <mxGeometry x="-0.8172" y="2" relative="1" as="geometry">
            <mxPoint x="340" y="280" as="sourcePoint" />
            <mxPoint x="500" y="280" as="targetPoint" />
            <Array as="points">
              <mxPoint x="200" y="218" />
              <mxPoint x="200" y="153" />
            </Array>
            <mxPoint as="offset" />
          </mxGeometry>
        </mxCell>
        <mxCell id="zfE6cm3D6rAWmVV0Wjxj-103" value="1" style="endArrow=open;html=1;endSize=12;startArrow=diamondThin;startSize=14;startFill=1;edgeStyle=orthogonalEdgeStyle;align=left;verticalAlign=bottom;rounded=0;exitX=0.046;exitY=-0.019;exitDx=0;exitDy=0;exitPerimeter=0;entryX=1;entryY=0.5;entryDx=0;entryDy=0;" edge="1" parent="1" source="zfE6cm3D6rAWmVV0Wjxj-62" target="zfE6cm3D6rAWmVV0Wjxj-22">
          <mxGeometry x="-1" y="3" relative="1" as="geometry">
            <mxPoint x="340" y="280" as="sourcePoint" />
            <mxPoint x="500" y="280" as="targetPoint" />
            <Array as="points">
              <mxPoint x="410" y="197" />
              <mxPoint x="410" y="159" />
            </Array>
          </mxGeometry>
        </mxCell>
        <mxCell id="zfE6cm3D6rAWmVV0Wjxj-104" value="1" style="endArrow=open;html=1;endSize=12;startArrow=diamondThin;startSize=14;startFill=0;edgeStyle=orthogonalEdgeStyle;align=left;verticalAlign=bottom;rounded=0;exitX=0.5;exitY=0;exitDx=0;exitDy=0;entryX=1;entryY=0.5;entryDx=0;entryDy=0;" edge="1" parent="1" source="zfE6cm3D6rAWmVV0Wjxj-62" target="zfE6cm3D6rAWmVV0Wjxj-18">
          <mxGeometry x="-1" y="-7" relative="1" as="geometry">
            <mxPoint x="340" y="280" as="sourcePoint" />
            <mxPoint x="500" y="280" as="targetPoint" />
            <Array as="points">
              <mxPoint x="522" y="183" />
              <mxPoint x="630" y="183" />
              <mxPoint x="630" y="153" />
            </Array>
            <mxPoint x="1" as="offset" />
          </mxGeometry>
        </mxCell>
        <mxCell id="zfE6cm3D6rAWmVV0Wjxj-105" value="1" style="endArrow=open;html=1;endSize=12;startArrow=diamondThin;startSize=14;startFill=1;edgeStyle=orthogonalEdgeStyle;align=left;verticalAlign=bottom;rounded=0;exitX=0.739;exitY=1.112;exitDx=0;exitDy=0;exitPerimeter=0;entryX=-0.007;entryY=0.115;entryDx=0;entryDy=0;entryPerimeter=0;" edge="1" parent="1" source="zfE6cm3D6rAWmVV0Wjxj-22" target="zfE6cm3D6rAWmVV0Wjxj-93">
          <mxGeometry x="-0.8418" y="-8" relative="1" as="geometry">
            <mxPoint x="458" y="207" as="sourcePoint" />
            <mxPoint x="400" y="169" as="targetPoint" />
            <Array as="points">
              <mxPoint x="348" y="207" />
              <mxPoint x="390" y="207" />
              <mxPoint x="390" y="427" />
              <mxPoint x="441" y="427" />
            </Array>
            <mxPoint as="offset" />
          </mxGeometry>
        </mxCell>
        <mxCell id="zfE6cm3D6rAWmVV0Wjxj-106" value="1" style="endArrow=open;html=1;endSize=12;startArrow=diamondThin;startSize=14;startFill=1;edgeStyle=orthogonalEdgeStyle;align=left;verticalAlign=bottom;rounded=0;entryX=0.981;entryY=0.131;entryDx=0;entryDy=0;entryPerimeter=0;exitX=1.003;exitY=0.091;exitDx=0;exitDy=0;exitPerimeter=0;" edge="1" parent="1" source="zfE6cm3D6rAWmVV0Wjxj-94" target="zfE6cm3D6rAWmVV0Wjxj-114">
          <mxGeometry x="-1" y="3" relative="1" as="geometry">
            <mxPoint x="358" y="182" as="sourcePoint" />
            <mxPoint x="451" y="437" as="targetPoint" />
            <Array as="points">
              <mxPoint x="750" y="444" />
              <mxPoint x="750" y="399" />
            </Array>
          </mxGeometry>
        </mxCell>
        <mxCell id="zfE6cm3D6rAWmVV0Wjxj-107" value="Relation" style="endArrow=open;html=1;endSize=12;startArrow=diamondThin;startSize=14;startFill=0;edgeStyle=orthogonalEdgeStyle;rounded=0;exitX=-0.022;exitY=0.94;exitDx=0;exitDy=0;exitPerimeter=0;" edge="1" parent="1" source="zfE6cm3D6rAWmVV0Wjxj-48">
          <mxGeometry x="0.0252" relative="1" as="geometry">
            <mxPoint x="390" y="480" as="sourcePoint" />
            <mxPoint x="280" y="380" as="targetPoint" />
            <Array as="points">
              <mxPoint x="590" y="386" />
              <mxPoint x="590" y="380" />
              <mxPoint x="280" y="380" />
            </Array>
            <mxPoint as="offset" />
          </mxGeometry>
        </mxCell>
        <mxCell id="zfE6cm3D6rAWmVV0Wjxj-108" value="1" style="edgeLabel;resizable=0;html=1;align=left;verticalAlign=top;" connectable="0" vertex="1" parent="zfE6cm3D6rAWmVV0Wjxj-107">
          <mxGeometry x="-1" relative="1" as="geometry">
            <mxPoint x="-6" as="offset" />
          </mxGeometry>
        </mxCell>
        <mxCell id="zfE6cm3D6rAWmVV0Wjxj-109" value="0..*" style="edgeLabel;resizable=0;html=1;align=right;verticalAlign=top;" connectable="0" vertex="1" parent="zfE6cm3D6rAWmVV0Wjxj-107">
          <mxGeometry x="1" relative="1" as="geometry">
            <mxPoint x="20" as="offset" />
          </mxGeometry>
        </mxCell>
        <mxCell id="zfE6cm3D6rAWmVV0Wjxj-110" value="1" style="text;align=center;fontStyle=1;verticalAlign=middle;spacingLeft=3;spacingRight=3;strokeColor=none;rotatable=0;points=[[0,0.5],[1,0.5]];portConstraint=eastwest;html=1;" vertex="1" parent="1">
          <mxGeometry x="390" y="140" width="40" height="20" as="geometry" />
        </mxCell>
        <mxCell id="zfE6cm3D6rAWmVV0Wjxj-112" value="1" style="text;align=center;fontStyle=1;verticalAlign=middle;spacingLeft=3;spacingRight=3;strokeColor=none;rotatable=0;points=[[0,0.5],[1,0.5]];portConstraint=eastwest;html=1;" vertex="1" parent="1">
          <mxGeometry x="175" y="160" width="35" height="26" as="geometry" />
        </mxCell>
        <mxCell id="zfE6cm3D6rAWmVV0Wjxj-114" value="1" style="text;align=center;fontStyle=1;verticalAlign=middle;spacingLeft=3;spacingRight=3;strokeColor=none;rotatable=0;points=[[0,0.5],[1,0.5]];portConstraint=eastwest;html=1;" vertex="1" parent="1">
          <mxGeometry x="720" y="396" width="30" height="24" as="geometry" />
        </mxCell>
        <mxCell id="zfE6cm3D6rAWmVV0Wjxj-115" value="1..*" style="text;align=center;fontStyle=1;verticalAlign=middle;spacingLeft=3;spacingRight=3;strokeColor=none;rotatable=0;points=[[0,0.5],[1,0.5]];portConstraint=eastwest;html=1;" vertex="1" parent="1">
          <mxGeometry x="390" y="400" width="40" height="26" as="geometry" />
        </mxCell>
        <mxCell id="zfE6cm3D6rAWmVV0Wjxj-117" value="1" style="text;align=center;fontStyle=1;verticalAlign=middle;spacingLeft=3;spacingRight=3;strokeColor=none;rotatable=0;points=[[0,0.5],[1,0.5]];portConstraint=eastwest;html=1;" vertex="1" parent="1">
          <mxGeometry x="602.5" y="130" width="40" height="20" as="geometry" />
        </mxCell>
        <mxCell id="zfE6cm3D6rAWmVV0Wjxj-118" value="1" style="endArrow=open;html=1;endSize=12;startArrow=diamondThin;startSize=14;startFill=0;edgeStyle=orthogonalEdgeStyle;align=left;verticalAlign=bottom;rounded=0;exitX=0.466;exitY=1.206;exitDx=0;exitDy=0;exitPerimeter=0;entryX=-0.011;entryY=0.107;entryDx=0;entryDy=0;entryPerimeter=0;" edge="1" parent="1" source="zfE6cm3D6rAWmVV0Wjxj-96" target="zfE6cm3D6rAWmVV0Wjxj-57">
          <mxGeometry x="-0.9179" y="-17" relative="1" as="geometry">
            <mxPoint x="400" y="630" as="sourcePoint" />
            <mxPoint x="560" y="630" as="targetPoint" />
            <Array as="points">
              <mxPoint x="517" y="698" />
            </Array>
            <mxPoint as="offset" />
          </mxGeometry>
        </mxCell>
        <mxCell id="zfE6cm3D6rAWmVV0Wjxj-119" value="0..*" style="text;align=center;fontStyle=1;verticalAlign=middle;spacingLeft=3;spacingRight=3;strokeColor=none;rotatable=0;points=[[0,0.5],[1,0.5]];portConstraint=eastwest;html=1;" vertex="1" parent="1">
          <mxGeometry x="582.5" y="670" width="80" height="26" as="geometry" />
        </mxCell>
      </root>
    </mxGraphModel>
  </diagram>
</mxfile>
